<mxfile host="app.diagrams.net" modified="2023-07-06T11:22:49.994Z" agent="Mozilla/5.0 (Windows NT 10.0; Win64; x64) AppleWebKit/537.36 (KHTML, like Gecko) Chrome/114.0.0.0 Safari/537.36" etag="TopFtRRantxaoHk2YsuL" version="21.6.1" type="device">
  <diagram name="Page-1" id="8luPy4K9LTvLDU5-M82X">
    <mxGraphModel dx="1215" dy="1694" grid="1" gridSize="10" guides="1" tooltips="1" connect="1" arrows="1" fold="1" page="1" pageScale="1" pageWidth="850" pageHeight="1100" background="none" math="0" shadow="0">
      <root>
        <mxCell id="0" />
        <mxCell id="1" parent="0" />
        <mxCell id="HYHlcIAclNxcXT9oRPFV-1" value="Doctor" style="rounded=0;whiteSpace=wrap;html=1;" vertex="1" parent="1">
          <mxGeometry x="80" y="40" width="120" height="40" as="geometry" />
        </mxCell>
        <mxCell id="HYHlcIAclNxcXT9oRPFV-4" value="Patient" style="rounded=0;whiteSpace=wrap;html=1;" vertex="1" parent="1">
          <mxGeometry x="450" y="40" width="120" height="40" as="geometry" />
        </mxCell>
        <mxCell id="HYHlcIAclNxcXT9oRPFV-6" value="Admitted Patients" style="rounded=0;whiteSpace=wrap;html=1;" vertex="1" parent="1">
          <mxGeometry x="740" y="90" width="140" height="40" as="geometry" />
        </mxCell>
        <mxCell id="HYHlcIAclNxcXT9oRPFV-7" value="Appointments" style="rounded=0;whiteSpace=wrap;html=1;" vertex="1" parent="1">
          <mxGeometry x="360" y="360" width="120" height="40" as="geometry" />
        </mxCell>
        <mxCell id="HYHlcIAclNxcXT9oRPFV-8" value="Ward" style="rounded=0;whiteSpace=wrap;html=1;" vertex="1" parent="1">
          <mxGeometry x="80" y="360" width="120" height="40" as="geometry" />
        </mxCell>
        <mxCell id="HYHlcIAclNxcXT9oRPFV-10" value="Nurse" style="rounded=0;whiteSpace=wrap;html=1;" vertex="1" parent="1">
          <mxGeometry x="930" y="210" width="120" height="40" as="geometry" />
        </mxCell>
        <mxCell id="HYHlcIAclNxcXT9oRPFV-11" value="" style="endArrow=none;html=1;rounded=0;" edge="1" parent="1">
          <mxGeometry width="50" height="50" relative="1" as="geometry">
            <mxPoint x="118.4" y="40" as="sourcePoint" />
            <mxPoint x="161.60389674076978" y="16.736363293431623" as="targetPoint" />
          </mxGeometry>
        </mxCell>
        <mxCell id="HYHlcIAclNxcXT9oRPFV-12" value="&lt;u&gt;dID&lt;/u&gt;" style="ellipse;whiteSpace=wrap;html=1;" vertex="1" parent="1">
          <mxGeometry x="110" y="-10" width="70" height="30" as="geometry" />
        </mxCell>
        <mxCell id="HYHlcIAclNxcXT9oRPFV-13" value="" style="endArrow=none;html=1;rounded=0;" edge="1" parent="1" target="HYHlcIAclNxcXT9oRPFV-14">
          <mxGeometry width="50" height="50" relative="1" as="geometry">
            <mxPoint x="170" y="40" as="sourcePoint" />
            <mxPoint x="220" y="-10" as="targetPoint" />
          </mxGeometry>
        </mxCell>
        <mxCell id="HYHlcIAclNxcXT9oRPFV-14" value="Name" style="ellipse;whiteSpace=wrap;html=1;" vertex="1" parent="1">
          <mxGeometry x="190" y="-10" width="70" height="30" as="geometry" />
        </mxCell>
        <mxCell id="HYHlcIAclNxcXT9oRPFV-15" value="" style="endArrow=none;html=1;rounded=0;" edge="1" parent="1" target="HYHlcIAclNxcXT9oRPFV-16">
          <mxGeometry width="50" height="50" relative="1" as="geometry">
            <mxPoint x="80" y="40" as="sourcePoint" />
            <mxPoint x="130" y="-10" as="targetPoint" />
          </mxGeometry>
        </mxCell>
        <mxCell id="HYHlcIAclNxcXT9oRPFV-16" value="" style="ellipse;whiteSpace=wrap;html=1;" vertex="1" parent="1">
          <mxGeometry x="40" y="-50" width="90" height="50" as="geometry" />
        </mxCell>
        <mxCell id="HYHlcIAclNxcXT9oRPFV-31" value="" style="endArrow=none;html=1;rounded=0;exitX=0;exitY=1;exitDx=0;exitDy=0;" edge="1" parent="1" target="HYHlcIAclNxcXT9oRPFV-32" source="HYHlcIAclNxcXT9oRPFV-6">
          <mxGeometry width="50" height="50" relative="1" as="geometry">
            <mxPoint x="680" y="280" as="sourcePoint" />
            <mxPoint x="730" y="230" as="targetPoint" />
          </mxGeometry>
        </mxCell>
        <mxCell id="HYHlcIAclNxcXT9oRPFV-32" value="&lt;u&gt;pID&lt;/u&gt;" style="ellipse;whiteSpace=wrap;html=1;" vertex="1" parent="1">
          <mxGeometry x="650" y="145" width="70" height="30" as="geometry" />
        </mxCell>
        <mxCell id="HYHlcIAclNxcXT9oRPFV-33" value="" style="endArrow=none;html=1;rounded=0;" edge="1" parent="1">
          <mxGeometry width="50" height="50" relative="1" as="geometry">
            <mxPoint x="200" y="60" as="sourcePoint" />
            <mxPoint x="290" y="60" as="targetPoint" />
          </mxGeometry>
        </mxCell>
        <mxCell id="HYHlcIAclNxcXT9oRPFV-34" value="Treat" style="rhombus;whiteSpace=wrap;html=1;" vertex="1" parent="1">
          <mxGeometry x="290" y="20" width="80" height="80" as="geometry" />
        </mxCell>
        <mxCell id="HYHlcIAclNxcXT9oRPFV-35" value="" style="endArrow=none;html=1;rounded=0;" edge="1" parent="1">
          <mxGeometry width="50" height="50" relative="1" as="geometry">
            <mxPoint x="370" y="60" as="sourcePoint" />
            <mxPoint x="450" y="60" as="targetPoint" />
          </mxGeometry>
        </mxCell>
        <mxCell id="HYHlcIAclNxcXT9oRPFV-36" value="M" style="text;html=1;align=center;verticalAlign=middle;resizable=0;points=[];autosize=1;strokeColor=none;fillColor=none;" vertex="1" parent="1">
          <mxGeometry x="200" y="40" width="30" height="30" as="geometry" />
        </mxCell>
        <mxCell id="HYHlcIAclNxcXT9oRPFV-37" value="N" style="text;html=1;align=center;verticalAlign=middle;resizable=0;points=[];autosize=1;strokeColor=none;fillColor=none;" vertex="1" parent="1">
          <mxGeometry x="420" y="40" width="30" height="30" as="geometry" />
        </mxCell>
        <mxCell id="HYHlcIAclNxcXT9oRPFV-38" value="" style="endArrow=none;html=1;rounded=0;exitX=0.143;exitY=1;exitDx=0;exitDy=0;exitPerimeter=0;" edge="1" parent="1" target="HYHlcIAclNxcXT9oRPFV-39" source="HYHlcIAclNxcXT9oRPFV-6">
          <mxGeometry width="50" height="50" relative="1" as="geometry">
            <mxPoint x="685" y="280" as="sourcePoint" />
            <mxPoint x="735" y="230" as="targetPoint" />
          </mxGeometry>
        </mxCell>
        <mxCell id="HYHlcIAclNxcXT9oRPFV-39" value="Name" style="ellipse;whiteSpace=wrap;html=1;" vertex="1" parent="1">
          <mxGeometry x="700" y="170" width="70" height="30" as="geometry" />
        </mxCell>
        <mxCell id="HYHlcIAclNxcXT9oRPFV-40" value="" style="endArrow=none;html=1;rounded=0;entryX=0.278;entryY=0.04;entryDx=0;entryDy=0;entryPerimeter=0;exitX=0.329;exitY=1.025;exitDx=0;exitDy=0;exitPerimeter=0;" edge="1" parent="1" target="HYHlcIAclNxcXT9oRPFV-140" source="HYHlcIAclNxcXT9oRPFV-6">
          <mxGeometry width="50" height="50" relative="1" as="geometry">
            <mxPoint x="735" y="280" as="sourcePoint" />
            <mxPoint x="798" y="230" as="targetPoint" />
          </mxGeometry>
        </mxCell>
        <mxCell id="HYHlcIAclNxcXT9oRPFV-48" value="Address" style="ellipse;whiteSpace=wrap;html=1;" vertex="1" parent="1">
          <mxGeometry x="820" y="150" width="70" height="30" as="geometry" />
        </mxCell>
        <mxCell id="HYHlcIAclNxcXT9oRPFV-61" value="" style="endArrow=none;html=1;rounded=0;entryX=0;entryY=0;entryDx=0;entryDy=0;exitX=0.643;exitY=1;exitDx=0;exitDy=0;exitPerimeter=0;" edge="1" parent="1" source="HYHlcIAclNxcXT9oRPFV-6" target="HYHlcIAclNxcXT9oRPFV-48">
          <mxGeometry width="50" height="50" relative="1" as="geometry">
            <mxPoint x="777.7" y="280" as="sourcePoint" />
            <mxPoint x="819.9987488729118" y="199.63237714146726" as="targetPoint" />
          </mxGeometry>
        </mxCell>
        <mxCell id="HYHlcIAclNxcXT9oRPFV-62" value="" style="endArrow=none;html=1;rounded=0;" edge="1" parent="1">
          <mxGeometry width="50" height="50" relative="1" as="geometry">
            <mxPoint x="570" y="59.5" as="sourcePoint" />
            <mxPoint x="660" y="59.5" as="targetPoint" />
          </mxGeometry>
        </mxCell>
        <mxCell id="HYHlcIAclNxcXT9oRPFV-63" value="" style="triangle;whiteSpace=wrap;html=1;" vertex="1" parent="1">
          <mxGeometry x="660" y="20" width="60" height="80" as="geometry" />
        </mxCell>
        <mxCell id="HYHlcIAclNxcXT9oRPFV-64" value="" style="endArrow=none;html=1;rounded=0;" edge="1" parent="1">
          <mxGeometry width="50" height="50" relative="1" as="geometry">
            <mxPoint x="690" y="40" as="sourcePoint" />
            <mxPoint x="752.3" y="14" as="targetPoint" />
          </mxGeometry>
        </mxCell>
        <mxCell id="HYHlcIAclNxcXT9oRPFV-65" value="" style="endArrow=none;html=1;rounded=0;" edge="1" parent="1">
          <mxGeometry width="50" height="50" relative="1" as="geometry">
            <mxPoint x="690" y="80" as="sourcePoint" />
            <mxPoint x="740" y="110" as="targetPoint" />
          </mxGeometry>
        </mxCell>
        <mxCell id="HYHlcIAclNxcXT9oRPFV-66" value="Out Patients" style="rounded=0;whiteSpace=wrap;html=1;" vertex="1" parent="1">
          <mxGeometry x="750" width="130" height="40" as="geometry" />
        </mxCell>
        <mxCell id="HYHlcIAclNxcXT9oRPFV-67" value="" style="endArrow=none;html=1;rounded=0;entryX=0;entryY=0.5;entryDx=0;entryDy=0;exitX=0.5;exitY=0;exitDx=0;exitDy=0;" edge="1" parent="1" target="HYHlcIAclNxcXT9oRPFV-69">
          <mxGeometry width="50" height="50" relative="1" as="geometry">
            <mxPoint x="970" y="5" as="sourcePoint" />
            <mxPoint x="620" y="155" as="targetPoint" />
          </mxGeometry>
        </mxCell>
        <mxCell id="HYHlcIAclNxcXT9oRPFV-69" value="Ward Number" style="ellipse;whiteSpace=wrap;html=1;" vertex="1" parent="1">
          <mxGeometry x="870" y="-55" width="70" height="30" as="geometry" />
        </mxCell>
        <mxCell id="HYHlcIAclNxcXT9oRPFV-70" value="" style="endArrow=none;html=1;rounded=0;entryX=0;entryY=0.333;entryDx=0;entryDy=0;entryPerimeter=0;exitX=0.75;exitY=0;exitDx=0;exitDy=0;" edge="1" parent="1" target="HYHlcIAclNxcXT9oRPFV-71">
          <mxGeometry width="50" height="50" relative="1" as="geometry">
            <mxPoint x="1000" y="5" as="sourcePoint" />
            <mxPoint x="710" y="155" as="targetPoint" />
          </mxGeometry>
        </mxCell>
        <mxCell id="HYHlcIAclNxcXT9oRPFV-71" value="Room Number" style="ellipse;whiteSpace=wrap;html=1;" vertex="1" parent="1">
          <mxGeometry x="1030" y="-50" width="70" height="30" as="geometry" />
        </mxCell>
        <mxCell id="HYHlcIAclNxcXT9oRPFV-72" value="" style="endArrow=none;html=1;rounded=0;" edge="1" parent="1">
          <mxGeometry width="50" height="50" relative="1" as="geometry">
            <mxPoint x="1030" y="120" as="sourcePoint" />
            <mxPoint x="1080" y="150" as="targetPoint" />
          </mxGeometry>
        </mxCell>
        <mxCell id="HYHlcIAclNxcXT9oRPFV-73" value="Name Of The Nurse Assigned" style="ellipse;whiteSpace=wrap;html=1;" vertex="1" parent="1">
          <mxGeometry x="1080" y="130" width="90" height="50" as="geometry" />
        </mxCell>
        <mxCell id="HYHlcIAclNxcXT9oRPFV-76" value="" style="endArrow=none;html=1;rounded=0;exitX=0.5;exitY=0;exitDx=0;exitDy=0;" edge="1" parent="1" source="HYHlcIAclNxcXT9oRPFV-10">
          <mxGeometry width="50" height="50" relative="1" as="geometry">
            <mxPoint x="900" y="160" as="sourcePoint" />
            <mxPoint x="990" y="160" as="targetPoint" />
          </mxGeometry>
        </mxCell>
        <mxCell id="HYHlcIAclNxcXT9oRPFV-77" value="Assigned" style="rhombus;whiteSpace=wrap;html=1;" vertex="1" parent="1">
          <mxGeometry x="950" y="80" width="80" height="80" as="geometry" />
        </mxCell>
        <mxCell id="HYHlcIAclNxcXT9oRPFV-78" value="" style="endArrow=none;html=1;rounded=0;entryX=1;entryY=0.5;entryDx=0;entryDy=0;exitX=0;exitY=0.5;exitDx=0;exitDy=0;" edge="1" parent="1" source="HYHlcIAclNxcXT9oRPFV-77" target="HYHlcIAclNxcXT9oRPFV-6">
          <mxGeometry width="50" height="50" relative="1" as="geometry">
            <mxPoint x="1030" y="120" as="sourcePoint" />
            <mxPoint x="1080" y="80" as="targetPoint" />
          </mxGeometry>
        </mxCell>
        <mxCell id="HYHlcIAclNxcXT9oRPFV-79" value="1" style="text;html=1;align=center;verticalAlign=middle;resizable=0;points=[];autosize=1;strokeColor=none;fillColor=none;" vertex="1" parent="1">
          <mxGeometry x="980" y="180" width="30" height="30" as="geometry" />
        </mxCell>
        <mxCell id="HYHlcIAclNxcXT9oRPFV-80" value="1" style="text;html=1;align=center;verticalAlign=middle;resizable=0;points=[];autosize=1;strokeColor=none;fillColor=none;" vertex="1" parent="1">
          <mxGeometry x="880" y="90" width="30" height="30" as="geometry" />
        </mxCell>
        <mxCell id="HYHlcIAclNxcXT9oRPFV-83" value="" style="endArrow=none;html=1;rounded=0;entryX=0;entryY=0.5;entryDx=0;entryDy=0;exitX=0.25;exitY=0;exitDx=0;exitDy=0;" edge="1" parent="1" target="HYHlcIAclNxcXT9oRPFV-84" source="HYHlcIAclNxcXT9oRPFV-8">
          <mxGeometry width="50" height="50" relative="1" as="geometry">
            <mxPoint x="140" y="290" as="sourcePoint" />
            <mxPoint x="190" y="320" as="targetPoint" />
          </mxGeometry>
        </mxCell>
        <mxCell id="HYHlcIAclNxcXT9oRPFV-84" value="&lt;u&gt;Ward Number&lt;/u&gt;" style="ellipse;whiteSpace=wrap;html=1;" vertex="1" parent="1">
          <mxGeometry x="60" y="310" width="70" height="30" as="geometry" />
        </mxCell>
        <mxCell id="HYHlcIAclNxcXT9oRPFV-85" value="" style="endArrow=none;html=1;rounded=0;entryX=0;entryY=0.333;entryDx=0;entryDy=0;entryPerimeter=0;exitX=0.075;exitY=0;exitDx=0;exitDy=0;exitPerimeter=0;" edge="1" parent="1" target="HYHlcIAclNxcXT9oRPFV-86" source="HYHlcIAclNxcXT9oRPFV-8">
          <mxGeometry width="50" height="50" relative="1" as="geometry">
            <mxPoint x="230" y="250" as="sourcePoint" />
            <mxPoint x="280" y="280" as="targetPoint" />
          </mxGeometry>
        </mxCell>
        <mxCell id="HYHlcIAclNxcXT9oRPFV-86" value="Floor" style="ellipse;whiteSpace=wrap;html=1;" vertex="1" parent="1">
          <mxGeometry y="290" width="70" height="30" as="geometry" />
        </mxCell>
        <mxCell id="HYHlcIAclNxcXT9oRPFV-87" value="" style="endArrow=none;html=1;rounded=0;" edge="1" parent="1" target="HYHlcIAclNxcXT9oRPFV-88">
          <mxGeometry width="50" height="50" relative="1" as="geometry">
            <mxPoint x="110" y="360" as="sourcePoint" />
            <mxPoint x="200" y="310" as="targetPoint" />
          </mxGeometry>
        </mxCell>
        <mxCell id="HYHlcIAclNxcXT9oRPFV-88" value="Name Of The Head Nurse" style="ellipse;whiteSpace=wrap;html=1;" vertex="1" parent="1">
          <mxGeometry x="130" y="270" width="90" height="50" as="geometry" />
        </mxCell>
        <mxCell id="HYHlcIAclNxcXT9oRPFV-89" value="" style="endArrow=none;html=1;rounded=0;" edge="1" parent="1" target="HYHlcIAclNxcXT9oRPFV-90">
          <mxGeometry width="50" height="50" relative="1" as="geometry">
            <mxPoint x="160" y="360" as="sourcePoint" />
            <mxPoint x="210" y="310" as="targetPoint" />
          </mxGeometry>
        </mxCell>
        <mxCell id="HYHlcIAclNxcXT9oRPFV-90" value="Name" style="ellipse;whiteSpace=wrap;html=1;" vertex="1" parent="1">
          <mxGeometry x="200" y="310" width="70" height="30" as="geometry" />
        </mxCell>
        <mxCell id="HYHlcIAclNxcXT9oRPFV-97" value="" style="endArrow=none;html=1;rounded=0;exitX=0.342;exitY=1.075;exitDx=0;exitDy=0;exitPerimeter=0;" edge="1" parent="1" source="HYHlcIAclNxcXT9oRPFV-1">
          <mxGeometry width="50" height="50" relative="1" as="geometry">
            <mxPoint x="80" y="150" as="sourcePoint" />
            <mxPoint x="120" y="120" as="targetPoint" />
          </mxGeometry>
        </mxCell>
        <mxCell id="HYHlcIAclNxcXT9oRPFV-98" value="Record" style="rhombus;whiteSpace=wrap;html=1;" vertex="1" parent="1">
          <mxGeometry x="80" y="120" width="80" height="80" as="geometry" />
        </mxCell>
        <mxCell id="HYHlcIAclNxcXT9oRPFV-102" value="" style="endArrow=none;html=1;rounded=0;exitX=1;exitY=1;exitDx=0;exitDy=0;" edge="1" parent="1" source="HYHlcIAclNxcXT9oRPFV-98" target="HYHlcIAclNxcXT9oRPFV-5">
          <mxGeometry width="50" height="50" relative="1" as="geometry">
            <mxPoint x="140" y="180" as="sourcePoint" />
            <mxPoint x="360" y="294.5" as="targetPoint" />
          </mxGeometry>
        </mxCell>
        <mxCell id="HYHlcIAclNxcXT9oRPFV-5" value="Diagnosis" style="rounded=0;whiteSpace=wrap;html=1;" vertex="1" parent="1">
          <mxGeometry x="200" y="200" width="120" height="40" as="geometry" />
        </mxCell>
        <mxCell id="HYHlcIAclNxcXT9oRPFV-104" value="Payments" style="rounded=0;whiteSpace=wrap;html=1;" vertex="1" parent="1">
          <mxGeometry x="730" y="350" width="120" height="40" as="geometry" />
        </mxCell>
        <mxCell id="HYHlcIAclNxcXT9oRPFV-105" value="" style="endArrow=none;html=1;rounded=0;" edge="1" parent="1" target="HYHlcIAclNxcXT9oRPFV-106">
          <mxGeometry width="50" height="50" relative="1" as="geometry">
            <mxPoint x="770" y="349.5" as="sourcePoint" />
            <mxPoint x="820" y="299.5" as="targetPoint" />
          </mxGeometry>
        </mxCell>
        <mxCell id="HYHlcIAclNxcXT9oRPFV-106" value="Cash" style="ellipse;whiteSpace=wrap;html=1;" vertex="1" parent="1">
          <mxGeometry x="690" y="279.5" width="70" height="30" as="geometry" />
        </mxCell>
        <mxCell id="HYHlcIAclNxcXT9oRPFV-108" value="" style="endArrow=none;html=1;rounded=0;" edge="1" parent="1" target="HYHlcIAclNxcXT9oRPFV-109">
          <mxGeometry width="50" height="50" relative="1" as="geometry">
            <mxPoint x="775" y="349.5" as="sourcePoint" />
            <mxPoint x="825" y="299.5" as="targetPoint" />
          </mxGeometry>
        </mxCell>
        <mxCell id="HYHlcIAclNxcXT9oRPFV-109" value="Card" style="ellipse;whiteSpace=wrap;html=1;" vertex="1" parent="1">
          <mxGeometry x="770" y="279.5" width="70" height="30" as="geometry" />
        </mxCell>
        <mxCell id="HYHlcIAclNxcXT9oRPFV-110" value="" style="endArrow=none;html=1;rounded=0;" edge="1" parent="1" target="HYHlcIAclNxcXT9oRPFV-111">
          <mxGeometry width="50" height="50" relative="1" as="geometry">
            <mxPoint x="395" y="359.5" as="sourcePoint" />
            <mxPoint x="445" y="309.5" as="targetPoint" />
          </mxGeometry>
        </mxCell>
        <mxCell id="HYHlcIAclNxcXT9oRPFV-111" value="Patient ID" style="ellipse;whiteSpace=wrap;html=1;" vertex="1" parent="1">
          <mxGeometry x="315" y="289.5" width="70" height="30" as="geometry" />
        </mxCell>
        <mxCell id="HYHlcIAclNxcXT9oRPFV-112" value="" style="endArrow=none;html=1;rounded=0;" edge="1" parent="1" target="HYHlcIAclNxcXT9oRPFV-113">
          <mxGeometry width="50" height="50" relative="1" as="geometry">
            <mxPoint x="400" y="359.5" as="sourcePoint" />
            <mxPoint x="450" y="309.5" as="targetPoint" />
          </mxGeometry>
        </mxCell>
        <mxCell id="HYHlcIAclNxcXT9oRPFV-113" value="Patient Name" style="ellipse;whiteSpace=wrap;html=1;" vertex="1" parent="1">
          <mxGeometry x="395" y="289.5" width="70" height="30" as="geometry" />
        </mxCell>
        <mxCell id="HYHlcIAclNxcXT9oRPFV-114" value="" style="endArrow=none;html=1;rounded=0;entryX=0.4;entryY=1;entryDx=0;entryDy=0;entryPerimeter=0;" edge="1" parent="1" target="HYHlcIAclNxcXT9oRPFV-115">
          <mxGeometry width="50" height="50" relative="1" as="geometry">
            <mxPoint x="450" y="359.5" as="sourcePoint" />
            <mxPoint x="492.2987488729118" y="279.13237714146726" as="targetPoint" />
          </mxGeometry>
        </mxCell>
        <mxCell id="HYHlcIAclNxcXT9oRPFV-115" value="Patient Contact No." style="ellipse;whiteSpace=wrap;html=1;" vertex="1" parent="1">
          <mxGeometry x="485" y="279.5" width="75" height="40.5" as="geometry" />
        </mxCell>
        <mxCell id="HYHlcIAclNxcXT9oRPFV-116" value="" style="endArrow=none;html=1;rounded=0;exitX=0.083;exitY=1;exitDx=0;exitDy=0;exitPerimeter=0;" edge="1" parent="1" target="HYHlcIAclNxcXT9oRPFV-117" source="HYHlcIAclNxcXT9oRPFV-7">
          <mxGeometry width="50" height="50" relative="1" as="geometry">
            <mxPoint x="395" y="500" as="sourcePoint" />
            <mxPoint x="445" y="450" as="targetPoint" />
          </mxGeometry>
        </mxCell>
        <mxCell id="HYHlcIAclNxcXT9oRPFV-117" value="Doctor" style="ellipse;whiteSpace=wrap;html=1;" vertex="1" parent="1">
          <mxGeometry x="315" y="430" width="70" height="30" as="geometry" />
        </mxCell>
        <mxCell id="HYHlcIAclNxcXT9oRPFV-118" value="" style="endArrow=none;html=1;rounded=0;exitX=0.5;exitY=1;exitDx=0;exitDy=0;" edge="1" parent="1" target="HYHlcIAclNxcXT9oRPFV-119" source="HYHlcIAclNxcXT9oRPFV-7">
          <mxGeometry width="50" height="50" relative="1" as="geometry">
            <mxPoint x="400" y="500" as="sourcePoint" />
            <mxPoint x="450" y="450" as="targetPoint" />
          </mxGeometry>
        </mxCell>
        <mxCell id="HYHlcIAclNxcXT9oRPFV-119" value="Location" style="ellipse;whiteSpace=wrap;html=1;" vertex="1" parent="1">
          <mxGeometry x="395" y="430" width="70" height="30" as="geometry" />
        </mxCell>
        <mxCell id="HYHlcIAclNxcXT9oRPFV-120" value="" style="endArrow=none;html=1;rounded=0;entryX=0.4;entryY=1;entryDx=0;entryDy=0;entryPerimeter=0;exitX=0.75;exitY=1;exitDx=0;exitDy=0;" edge="1" parent="1" target="HYHlcIAclNxcXT9oRPFV-121" source="HYHlcIAclNxcXT9oRPFV-7">
          <mxGeometry width="50" height="50" relative="1" as="geometry">
            <mxPoint x="450" y="500" as="sourcePoint" />
            <mxPoint x="492.2987488729118" y="419.63237714146726" as="targetPoint" />
          </mxGeometry>
        </mxCell>
        <mxCell id="HYHlcIAclNxcXT9oRPFV-121" value="&lt;u&gt;Appointment Number&lt;/u&gt;" style="ellipse;whiteSpace=wrap;html=1;" vertex="1" parent="1">
          <mxGeometry x="485" y="420" width="85" height="40" as="geometry" />
        </mxCell>
        <mxCell id="HYHlcIAclNxcXT9oRPFV-122" value="" style="endArrow=none;html=1;rounded=0;exitX=0.325;exitY=0.975;exitDx=0;exitDy=0;exitPerimeter=0;" edge="1" parent="1" target="HYHlcIAclNxcXT9oRPFV-123" source="HYHlcIAclNxcXT9oRPFV-7">
          <mxGeometry width="50" height="50" relative="1" as="geometry">
            <mxPoint x="425" y="540" as="sourcePoint" />
            <mxPoint x="475" y="490" as="targetPoint" />
          </mxGeometry>
        </mxCell>
        <mxCell id="HYHlcIAclNxcXT9oRPFV-123" value="Date/Time" style="ellipse;whiteSpace=wrap;html=1;" vertex="1" parent="1">
          <mxGeometry x="345" y="470" width="70" height="30" as="geometry" />
        </mxCell>
        <mxCell id="HYHlcIAclNxcXT9oRPFV-124" value="Phone Number" style="ellipse;whiteSpace=wrap;html=1;" vertex="1" parent="1">
          <mxGeometry x="50" y="-40" width="70" height="30" as="geometry" />
        </mxCell>
        <mxCell id="HYHlcIAclNxcXT9oRPFV-132" value="Assigned" style="rhombus;whiteSpace=wrap;html=1;" vertex="1" parent="1">
          <mxGeometry x="950" y="-10" width="80" height="80" as="geometry" />
        </mxCell>
        <mxCell id="HYHlcIAclNxcXT9oRPFV-133" value="" style="endArrow=none;html=1;rounded=0;entryX=0.95;entryY=0.075;entryDx=0;entryDy=0;exitX=0;exitY=0.5;exitDx=0;exitDy=0;entryPerimeter=0;" edge="1" parent="1" source="HYHlcIAclNxcXT9oRPFV-132" target="HYHlcIAclNxcXT9oRPFV-6">
          <mxGeometry width="50" height="50" relative="1" as="geometry">
            <mxPoint x="1030" y="30" as="sourcePoint" />
            <mxPoint x="863.0100000000002" y="95.00999999999999" as="targetPoint" />
          </mxGeometry>
        </mxCell>
        <mxCell id="HYHlcIAclNxcXT9oRPFV-135" value="" style="endArrow=none;html=1;rounded=0;entryX=1;entryY=0.5;entryDx=0;entryDy=0;" edge="1" parent="1">
          <mxGeometry width="50" height="50" relative="1" as="geometry">
            <mxPoint x="1100" y="30" as="sourcePoint" />
            <mxPoint x="1030" y="30" as="targetPoint" />
          </mxGeometry>
        </mxCell>
        <mxCell id="HYHlcIAclNxcXT9oRPFV-136" value="Room" style="rounded=0;whiteSpace=wrap;html=1;" vertex="1" parent="1">
          <mxGeometry x="1080" y="10" width="120" height="40" as="geometry" />
        </mxCell>
        <mxCell id="HYHlcIAclNxcXT9oRPFV-140" value="" style="ellipse;whiteSpace=wrap;html=1;" vertex="1" parent="1">
          <mxGeometry x="770" y="180" width="90" height="50" as="geometry" />
        </mxCell>
        <mxCell id="HYHlcIAclNxcXT9oRPFV-141" value="Phone Number" style="ellipse;whiteSpace=wrap;html=1;" vertex="1" parent="1">
          <mxGeometry x="780" y="190" width="70" height="30" as="geometry" />
        </mxCell>
      </root>
    </mxGraphModel>
  </diagram>
</mxfile>
